<?xml version="1.0" encoding="utf-8"?>
<!-- Generator: Adobe Illustrator 21.1.0, SVG Export Plug-In . SVG Version: 6.00 Build 0)  -->
<svg version="1.1" id="Layer_1" xmlns="http://www.w3.org/2000/svg" xmlns:xlink="http://www.w3.org/1999/xlink" x="0px" y="0px"
	 viewBox="0 0 50 50" style="enable-background:new 0 0 50 50;" xml:space="preserve">
<style type="text/css">
	.st0{fill-rule:evenodd;clip-rule:evenodd;fill:#181616;}
</style>
<path class="st0" d="M25,1C11.7,1,1,11.8,1,25.1C1,35.7,7.9,44.8,17.4,48c1.2,0.2,1.6-0.5,1.6-1.2c0-0.6,0-2.1,0-4.1
	c-6.7,1.5-8.1-3.2-8.1-3.2c-1.1-2.8-2.7-3.5-2.7-3.5c-2.2-1.5,0.2-1.5,0.2-1.5c2.4,0.2,3.7,2.5,3.7,2.5c2.1,3.7,5.6,2.6,7,2
	c0.2-1.6,0.8-2.6,1.5-3.2c-5.3-0.6-10.9-2.7-10.9-11.9c0-2.6,0.9-4.8,2.5-6.5c-0.2-0.6-1.1-3.1,0.2-6.4c0,0,2-0.6,6.6,2.5
	c1.9-0.5,4-0.8,6-0.8c2,0,4.1,0.3,6,0.8c4.6-3.1,6.6-2.5,6.6-2.5c1.3,3.3,0.5,5.8,0.2,6.4c1.5,1.7,2.5,3.8,2.5,6.5
	c0,9.3-5.6,11.3-11,11.9c0.9,0.7,1.6,2.2,1.6,4.5c0,3.2,0,5.8,0,6.6c0,0.6,0.4,1.4,1.7,1.2C42.1,44.8,49,35.7,49,25.1
	C49,11.8,38.3,1,25,1z"/>
</svg>
