<svg xmlns="http://www.w3.org/2000/svg" viewBox="0 0 50 50"><path d="M25 1C11.7 1 1 11.8 1 25.1 1 35.7 7.9 44.8 17.4 48c1.2.2 1.6-.5 1.6-1.2v-4.1c-6.7 1.5-8.1-3.2-8.1-3.2C9.8 36.7 8.2 36 8.2 36c-2.2-1.5.2-1.5.2-1.5 2.4.2 3.7 2.5 3.7 2.5 2.1 3.7 5.6 2.6 7 2 .2-1.6.8-2.6 1.5-3.2-5.3-.6-10.9-2.7-10.9-11.9 0-2.6.9-4.8 2.5-6.5-.2-.6-1.1-3.1.2-6.4 0 0 2-.6 6.6 2.5 1.9-.5 4-.8 6-.8s4.1.3 6 .8c4.6-3.1 6.6-2.5 6.6-2.5 1.3 3.3.5 5.8.2 6.4 1.5 1.7 2.5 3.8 2.5 6.5 0 9.3-5.6 11.3-11 11.9.9.7 1.6 2.2 1.6 4.5v6.6c0 .6.4 1.4 1.7 1.2 9.5-3.3 16.4-12.4 16.4-23C49 11.8 38.3 1 25 1z" fill-rule="evenodd" clip-rule="evenodd" fill="#181616"/></svg>